<?xml version="1.0" encoding="utf-8"?>
<!-- Svg Vector Icons : http://www.onlinewebfonts.com/icon -->
<!DOCTYPE svg PUBLIC "-//W3C//DTD SVG 1.1//EN" "http://www.w3.org/Graphics/SVG/1.1/DTD/svg11.dtd">
<svg version="1.1" xmlns="http://www.w3.org/2000/svg" xmlns:xlink="http://www.w3.org/1999/xlink" x="0px" y="0px" viewBox="0 0 256 256" enable-background="new 0 0 256 256" xml:space="preserve">
<metadata> Svg Vector Icons : http://www.onlinewebfonts.com/icon </metadata>
<g><g><path fill="#000000" d="M128,10c65.2,0,118,52.8,118,118c0,65.2-52.8,118-118,118c-65.2,0-118-52.8-118-118C10,62.8,62.8,10,128,10z M197.2,83.5c-0.1-0.7-0.1-1.5-0.2-2.3c-0.4-3.6-2-6.6-3.9-9.5c-2.4-3.4-5.3-6.5-8.6-9c-2.6-2-5.7-3-8.9-3.4c-0.2,0-0.4-0.1-0.6-0.2c-0.9,0-1.8,0-2.6,0c-0.1,0-0.3,0.1-0.4,0.1c-2.5,0.3-4.8,1.2-6.7,2.8c-3,2.6-6,5.4-9,8.1c0,0,0,0.1,0,0c9.8,9.8,19.6,19.6,29.4,29.4c0,0,0.1-0.1,0.2-0.2c2.6-2.6,5.3-5,7.9-7.7c1-1,1.8-2.3,2.4-3.6c0.6-1.3,0.7-2.8,1.1-4.2C197.2,83.8,197.2,83.6,197.2,83.5z M144.1,82.2c0-0.1-0.1,0-0.2,0.1c-23.5,23.6-47,47.1-70.5,70.7c-3.2,3.2-5.5,6.8-6.8,11c-2.3,7.2-4.5,14.4-6.6,21.6c-0.7,2.4-1.2,4.8-1.1,7.3c0.1,2.3,1.3,3.8,3.6,3.9c1.7,0.1,3.4,0,5-0.4c6.4-1.3,12.5-3.3,18.7-5.5c2.5-0.9,5-1.9,7.5-2.8c4.6-1.7,8.3-4.6,11.6-8c22.7-22.7,45.4-45.5,68.1-68.2c0.1-0.1,0.2-0.2,0.4-0.5C163.9,101.7,154,91.9,144.1,82.2z"/></g></g>
</svg>